<svg width="24" height="24" viewBox="0 0 24 24" fill="none" xmlns="http://www.w3.org/2000/svg">
    <symbol id="white-people">
        <path d="M12 11C12.7911 11 13.5645 10.7654 14.2223 10.3259C14.8801 9.88635 15.3928 9.26164 15.6955 8.53074C15.9983 7.79983 16.0775 6.99556 15.9231 6.21964C15.7688 5.44372 15.3878 4.73098 14.8284 4.17157C14.269 3.61216 13.5563 3.2312 12.7804 3.07686C12.0044 2.92252 11.2002 3.00173 10.4693 3.30448C9.73836 3.60723 9.11365 4.11992 8.67412 4.77772C8.2346 5.43552 8 6.20888 8 7C8 8.06087 8.42143 9.07828 9.17157 9.82843C9.92172 10.5786 10.9391 11 12 11ZM12 5C12.3956 5 12.7822 5.1173 13.1111 5.33706C13.44 5.55683 13.6964 5.86918 13.8478 6.23463C13.9991 6.60009 14.0387 7.00222 13.9616 7.39018C13.8844 7.77814 13.6939 8.13451 13.4142 8.41422C13.1345 8.69392 12.7781 8.8844 12.3902 8.96157C12.0022 9.03874 11.6001 8.99914 11.2346 8.84776C10.8692 8.69639 10.5568 8.44004 10.3371 8.11114C10.1173 7.78224 10 7.39556 10 7C10 6.46957 10.2107 5.96086 10.5858 5.58579C10.9609 5.21072 11.4696 5 12 5Z" fill="black"/>
        <path d="M12 13C10.1435 13 8.36301 13.7375 7.05025 15.0503C5.7375 16.363 5 18.1435 5 20C5 20.2652 5.10536 20.5196 5.29289 20.7071C5.48043 20.8946 5.73478 21 6 21C6.26522 21 6.51957 20.8946 6.70711 20.7071C6.89464 20.5196 7 20.2652 7 20C7 18.6739 7.52678 17.4021 8.46447 16.4645C9.40215 15.5268 10.6739 15 12 15C13.3261 15 14.5979 15.5268 15.5355 16.4645C16.4732 17.4021 17 18.6739 17 20C17 20.2652 17.1054 20.5196 17.2929 20.7071C17.4804 20.8946 17.7348 21 18 21C18.2652 21 18.5196 20.8946 18.7071 20.7071C18.8946 20.5196 19 20.2652 19 20C19 18.1435 18.2625 16.363 16.9497 15.0503C15.637 13.7375 13.8565 13 12 13Z" fill="black"/>
    </symbol>


    <symbol id="white-bookmark">
        <path d="M6.09002 21.06C5.8248 21.06 5.57045 20.9546 5.38291 20.7671C5.19538 20.5796 5.09002 20.3252 5.09002 20.06L4.94002 5.4C4.92798 5.10234 4.9749 4.80525 5.07809 4.52579C5.18128 4.24633 5.33871 3.99004 5.5413 3.77164C5.7439 3.55324 5.98768 3.37705 6.25862 3.25321C6.52955 3.12936 6.8223 3.0603 7.12002 3.05L16.71 3C17.0081 3.00521 17.3023 3.06909 17.5757 3.18801C17.8491 3.30692 18.0965 3.47854 18.3035 3.69305C18.5106 3.90756 18.6734 4.16077 18.7826 4.43821C18.8918 4.71565 18.9453 5.01189 18.94 5.31L19.08 19.97C19.0817 20.1452 19.0374 20.3178 18.9514 20.4705C18.8654 20.6232 18.7408 20.7506 18.59 20.84C18.438 20.9278 18.2656 20.974 18.09 20.974C17.9145 20.974 17.742 20.9278 17.59 20.84L11.89 17.68L6.60002 20.91C6.44337 20.9975 6.26909 21.0488 6.09002 21.06ZM11.85 15.51C12.0238 15.5103 12.195 15.5514 12.35 15.63L17.06 18.24L16.94 5.29C16.94 5.09 16.81 4.95 16.73 4.96L7.13002 5.05C7.05002 5.05 6.94002 5.18 6.94002 5.38L7.06002 18.28L11.34 15.65C11.4955 15.561 11.6709 15.5128 11.85 15.51Z" fill="black"/>
    </symbol>
</svg>
